<svg xmlns="http://www.w3.org/2000/svg" width="32" height="32" viewBox="0 0 32 32">
  <!-- Ball body -->
  <circle cx="16" cy="16" r="15" fill="#FFFFFF" stroke="#000000" stroke-width="1.5"/>
  <!-- Arc lines (seams) -->
  <path d="M16,1.5 C16,1.5 12,6 12,6" stroke="#000" stroke-width="1" fill="none"/>
  <path d="M16,1.5 C16,1.5 20,6 20,6" stroke="#000" stroke-width="1" fill="none"/>
  <path d="M30.5,12 C30.5,12 25,11 24,12" stroke="#000" stroke-width="1" fill="none"/>
  <path d="M30.5,20 C30.5,20 25,20 24,19" stroke="#000" stroke-width="1" fill="none"/>
  <path d="M22,29 C22,29 21,24 20,23" stroke="#000" stroke-width="1" fill="none"/>
  <path d="M10,29 C10,29 11,24 12,23" stroke="#000" stroke-width="1" fill="none"/>
  <path d="M1.5,20 C1.5,20 7,20 8,19" stroke="#000" stroke-width="1" fill="none"/>
  <path d="M1.5,12 C1.5,12 7,11 8,12" stroke="#000" stroke-width="1" fill="none"/>
  <!-- Center pentagon (black) -->
  <polygon points="16,8 21,11.5 19.2,17.2 12.8,17.2 11,11.5" fill="#000000" stroke="#000" stroke-width="0.8"/>
  <!-- Top pentagon (black) -->
  <polygon points="16,1.5 20,6 18,8.5 14,8.5 12,6" fill="#000000" stroke="#000" stroke-width="0.8"/>
  <!-- Top-right pentagon (black) -->
  <polygon points="24,12 30,11 30.5,16 25.5,17 21.5,13" fill="#000000" stroke="#000" stroke-width="0.8"/>
  <!-- Bottom-right pentagon (black) -->
  <polygon points="25,20 30.5,20 28,27 22,26 21,22" fill="#000000" stroke="#000" stroke-width="0.8"/>
  <!-- Bottom pentagon (black) -->
  <polygon points="12,23 14.5,20 17.5,20 20,23 18,28.5 14,28.5" fill="#000000" stroke="#000" stroke-width="0.8"/>
  <!-- Bottom-left pentagon (black) -->
  <polygon points="7,20 11,22 10,26 4,27 1.5,20" fill="#000000" stroke="#000" stroke-width="0.8"/>
  <!-- Top-left pentagon (black) -->
  <polygon points="8,12 10.5,13 6.5,17 1.5,16 2,11" fill="#000000" stroke="#000" stroke-width="0.8"/>
  <!-- White hexagon seam lines -->
  <line x1="12" y1="6" x2="14" y2="8.5" stroke="#000" stroke-width="0.8"/>
  <line x1="20" y1="6" x2="18" y2="8.5" stroke="#000" stroke-width="0.8"/>
  <line x1="21" y1="11.5" x2="24" y2="12" stroke="#000" stroke-width="0.8"/>
  <line x1="19.2" y1="17.2" x2="21" y2="19" stroke="#000" stroke-width="0.8"/>
  <line x1="17.5" y1="20" x2="19.2" y2="17.2" stroke="#000" stroke-width="0.8"/>
  <line x1="14.5" y1="20" x2="12.8" y2="17.2" stroke="#000" stroke-width="0.8"/>
  <line x1="12.8" y1="17.2" x2="11" y2="19" stroke="#000" stroke-width="0.8"/>
  <line x1="11" y1="11.5" x2="8" y2="12" stroke="#000" stroke-width="0.8"/>
  <line x1="20" y1="23" x2="22" y2="24" stroke="#000" stroke-width="0.8"/>
  <line x1="12" y1="23" x2="10" y2="24" stroke="#000" stroke-width="0.8"/>
</svg>
