<svg xmlns="http://www.w3.org/2000/svg" width="32" height="32" viewBox="0 0 32 32">
  <circle cx="16" cy="16" r="14" fill="#FFFFFF" stroke="#1a1a1a" stroke-width="1.5"/>
  <!-- Center pentagon -->
  <polygon points="16,9 20.5,12.3 18.8,17.5 13.2,17.5 11.5,12.3" fill="#1a1a1a"/>
  <!-- Top pentagon -->
  <polygon points="16,2.5 19.5,5 18,9 14,9 12.5,5" fill="#1a1a1a"/>
  <!-- Top-right pentagon -->
  <polygon points="24,6 27,10 24.5,13.5 20.5,12.3 21,8" fill="#1a1a1a"/>
  <!-- Bottom-right pentagon -->
  <polygon points="27.5,17 26,22 22,23 19,18.5 22.5,15" fill="#1a1a1a"/>
  <!-- Bottom-left pentagon -->
  <polygon points="4.5,17 9.5,15 13,18.5 10,23 6,22" fill="#1a1a1a"/>
  <!-- Top-left pentagon -->
  <polygon points="8,6 11,8 11.5,12.3 7.5,13.5 5,10" fill="#1a1a1a"/>
  <!-- Bottom pentagon -->
  <polygon points="12,24 14,20 18,20 20,24 16,27.5" fill="#1a1a1a"/>
  <!-- Seam lines connecting pentagons -->
  <line x1="14" y1="9" x2="12.5" y2="5" stroke="#1a1a1a" stroke-width="0.7"/>
  <line x1="18" y1="9" x2="19.5" y2="5" stroke="#1a1a1a" stroke-width="0.7"/>
  <line x1="20.5" y1="12.3" x2="24.5" y2="13.5" stroke="#1a1a1a" stroke-width="0.7"/>
  <line x1="21" y1="8" x2="20.5" y2="12.3" stroke="#1a1a1a" stroke-width="0.7"/>
  <line x1="18.8" y1="17.5" x2="22.5" y2="15" stroke="#1a1a1a" stroke-width="0.7"/>
  <line x1="18.8" y1="17.5" x2="18" y2="20" stroke="#1a1a1a" stroke-width="0.7"/>
  <line x1="13.2" y1="17.5" x2="14" y2="20" stroke="#1a1a1a" stroke-width="0.7"/>
  <line x1="13.2" y1="17.5" x2="9.5" y2="15" stroke="#1a1a1a" stroke-width="0.7"/>
  <line x1="11.5" y1="12.3" x2="7.5" y2="13.5" stroke="#1a1a1a" stroke-width="0.7"/>
  <line x1="11" y1="8" x2="11.5" y2="12.3" stroke="#1a1a1a" stroke-width="0.7"/>
  <line x1="20" y1="24" x2="22" y2="23" stroke="#1a1a1a" stroke-width="0.7"/>
  <line x1="12" y1="24" x2="10" y2="23" stroke="#1a1a1a" stroke-width="0.7"/>
</svg>