<svg xmlns="http://www.w3.org/2000/svg" width="32" height="32" viewBox="0 0 32 32">
  <g transform="rotate(-15, 16, 16)">
    <circle cx="16" cy="16" r="12" fill="#FFFFFF" stroke="#1a1a1a" stroke-width="1.5"/>
    <!-- Center pentagon -->
    <polygon points="16,10.5 19.5,13 18.2,16.5 13.8,16.5 12.5,13" fill="#1a1a1a"/>
    <!-- Top pentagon -->
    <polygon points="16,4.5 18.8,6.5 17.5,10 14.5,10 13.2,6.5" fill="#1a1a1a"/>
    <!-- Top-right pentagon -->
    <polygon points="22.5,8 25,11 23,13.8 19.5,13 20,9.5" fill="#1a1a1a"/>
    <!-- Bottom-right pentagon -->
    <polygon points="25.5,16.5 24.2,20.5 21,21.5 18.5,17.8 21.5,15" fill="#1a1a1a"/>
    <!-- Bottom-left pentagon -->
    <polygon points="6.5,16.5 10.5,15 13.5,17.8 11,21.5 7.8,20.5" fill="#1a1a1a"/>
    <!-- Top-left pentagon -->
    <polygon points="9.5,8 12,9.5 12.5,13 9,13.8 7,11" fill="#1a1a1a"/>
    <!-- Bottom pentagon -->
    <polygon points="13,22.5 14.5,19 17.5,19 19,22.5 16,25.5" fill="#1a1a1a"/>
    <!-- Seam lines -->
    <line x1="14.5" y1="10" x2="13.2" y2="6.5" stroke="#1a1a1a" stroke-width="0.6"/>
    <line x1="17.5" y1="10" x2="18.8" y2="6.5" stroke="#1a1a1a" stroke-width="0.6"/>
    <line x1="19.5" y1="13" x2="23" y2="13.8" stroke="#1a1a1a" stroke-width="0.6"/>
    <line x1="20" y1="9.5" x2="19.5" y2="13" stroke="#1a1a1a" stroke-width="0.6"/>
    <line x1="18.2" y1="16.5" x2="21.5" y2="15" stroke="#1a1a1a" stroke-width="0.6"/>
    <line x1="18.2" y1="16.5" x2="17.5" y2="19" stroke="#1a1a1a" stroke-width="0.6"/>
    <line x1="13.8" y1="16.5" x2="14.5" y2="19" stroke="#1a1a1a" stroke-width="0.6"/>
    <line x1="13.8" y1="16.5" x2="10.5" y2="15" stroke="#1a1a1a" stroke-width="0.6"/>
    <line x1="12.5" y1="13" x2="9" y2="13.8" stroke="#1a1a1a" stroke-width="0.6"/>
    <line x1="12" y1="9.5" x2="12.5" y2="13" stroke="#1a1a1a" stroke-width="0.6"/>
    <line x1="19" y1="22.5" x2="21" y2="21.5" stroke="#1a1a1a" stroke-width="0.6"/>
    <line x1="13" y1="22.5" x2="11" y2="21.5" stroke="#1a1a1a" stroke-width="0.6"/>
  </g>
  <!-- Small pointer hand indicator -->
  <g transform="translate(22, 22)">
    <path d="M0,0 L3,-6 L5,-3 L8,-5 L7,0 L4,1 L5,4 L2,3 Z" fill="#d8261c" stroke="#FFFFFF" stroke-width="0.8"/>
  </g>
</svg>